<svg version="1.1" baseProfile="full" shape-rendering="crispEdges" viewBox="0 0 740 740" xmlns="http://www.w3.org/2000/svg"><rect x="0" y="0" width="740" height="740" fill="#FFFFFF" />
<rect x="0" y="0" width="25.5172413793103" height="25.5172413793103" fill="#000000" />
<rect x="0" y="25.5172413793103" width="25.5172413793103" height="25.5172413793103" fill="#000000" />
<rect x="0" y="51.0344827586207" width="25.5172413793103" height="25.5172413793103" fill="#000000" />
<rect x="0" y="76.551724137931" width="25.5172413793103" height="25.5172413793103" fill="#000000" />
<rect x="0" y="102.068965517241" width="25.5172413793103" height="25.5172413793103" fill="#000000" />
<rect x="0" y="127.586206896552" width="25.5172413793103" height="25.5172413793103" fill="#000000" />
<rect x="0" y="153.103448275862" width="25.5172413793103" height="25.5172413793103" fill="#000000" />
<rect x="0" y="204.137931034483" width="25.5172413793103" height="25.5172413793103" fill="#000000" />
<rect x="0" y="229.655172413793" width="25.5172413793103" height="25.5172413793103" fill="#000000" />
<rect x="0" y="280.689655172414" width="25.5172413793103" height="25.5172413793103" fill="#000000" />
<rect x="0" y="306.206896551724" width="25.5172413793103" height="25.5172413793103" fill="#000000" />
<rect x="0" y="357.241379310345" width="25.5172413793103" height="25.5172413793103" fill="#000000" />
<rect x="0" y="408.275862068966" width="25.5172413793103" height="25.5172413793103" fill="#000000" />
<rect x="0" y="433.793103448276" width="25.5172413793103" height="25.5172413793103" fill="#000000" />
<rect x="0" y="459.310344827586" width="25.5172413793103" height="25.5172413793103" fill="#000000" />
<rect x="0" y="484.827586206897" width="25.5172413793103" height="25.5172413793103" fill="#000000" />
<rect x="0" y="510.344827586207" width="25.5172413793103" height="25.5172413793103" fill="#000000" />
<rect x="0" y="561.379310344828" width="25.5172413793103" height="25.5172413793103" fill="#000000" />
<rect x="0" y="586.896551724138" width="25.5172413793103" height="25.5172413793103" fill="#000000" />
<rect x="0" y="612.413793103448" width="25.5172413793103" height="25.5172413793103" fill="#000000" />
<rect x="0" y="637.931034482759" width="25.5172413793103" height="25.5172413793103" fill="#000000" />
<rect x="0" y="663.448275862069" width="25.5172413793103" height="25.5172413793103" fill="#000000" />
<rect x="0" y="688.965517241379" width="25.5172413793103" height="25.5172413793103" fill="#000000" />
<rect x="0" y="714.48275862069" width="25.5172413793103" height="25.5172413793103" fill="#000000" />
<rect x="25.5172413793103" y="0" width="25.5172413793103" height="25.5172413793103" fill="#000000" />
<rect x="25.5172413793103" y="153.103448275862" width="25.5172413793103" height="25.5172413793103" fill="#000000" />
<rect x="25.5172413793103" y="204.137931034483" width="25.5172413793103" height="25.5172413793103" fill="#000000" />
<rect x="25.5172413793103" y="229.655172413793" width="25.5172413793103" height="25.5172413793103" fill="#000000" />
<rect x="25.5172413793103" y="255.172413793103" width="25.5172413793103" height="25.5172413793103" fill="#000000" />
<rect x="25.5172413793103" y="280.689655172414" width="25.5172413793103" height="25.5172413793103" fill="#000000" />
<rect x="25.5172413793103" y="306.206896551724" width="25.5172413793103" height="25.5172413793103" fill="#000000" />
<rect x="25.5172413793103" y="331.724137931034" width="25.5172413793103" height="25.5172413793103" fill="#000000" />
<rect x="25.5172413793103" y="357.241379310345" width="25.5172413793103" height="25.5172413793103" fill="#000000" />
<rect x="25.5172413793103" y="433.793103448276" width="25.5172413793103" height="25.5172413793103" fill="#000000" />
<rect x="25.5172413793103" y="561.379310344828" width="25.5172413793103" height="25.5172413793103" fill="#000000" />
<rect x="25.5172413793103" y="714.48275862069" width="25.5172413793103" height="25.5172413793103" fill="#000000" />
<rect x="51.0344827586207" y="0" width="25.5172413793103" height="25.5172413793103" fill="#000000" />
<rect x="51.0344827586207" y="51.0344827586207" width="25.5172413793103" height="25.5172413793103" fill="#000000" />
<rect x="51.0344827586207" y="76.551724137931" width="25.5172413793103" height="25.5172413793103" fill="#000000" />
<rect x="51.0344827586207" y="102.068965517241" width="25.5172413793103" height="25.5172413793103" fill="#000000" />
<rect x="51.0344827586207" y="153.103448275862" width="25.5172413793103" height="25.5172413793103" fill="#000000" />
<rect x="51.0344827586207" y="204.137931034483" width="25.5172413793103" height="25.5172413793103" fill="#000000" />
<rect x="51.0344827586207" y="280.689655172414" width="25.5172413793103" height="25.5172413793103" fill="#000000" />
<rect x="51.0344827586207" y="357.241379310345" width="25.5172413793103" height="25.5172413793103" fill="#000000" />
<rect x="51.0344827586207" y="382.758620689655" width="25.5172413793103" height="25.5172413793103" fill="#000000" />
<rect x="51.0344827586207" y="408.275862068966" width="25.5172413793103" height="25.5172413793103" fill="#000000" />
<rect x="51.0344827586207" y="459.310344827586" width="25.5172413793103" height="25.5172413793103" fill="#000000" />
<rect x="51.0344827586207" y="484.827586206897" width="25.5172413793103" height="25.5172413793103" fill="#000000" />
<rect x="51.0344827586207" y="510.344827586207" width="25.5172413793103" height="25.5172413793103" fill="#000000" />
<rect x="51.0344827586207" y="561.379310344828" width="25.5172413793103" height="25.5172413793103" fill="#000000" />
<rect x="51.0344827586207" y="612.413793103448" width="25.5172413793103" height="25.5172413793103" fill="#000000" />
<rect x="51.0344827586207" y="637.931034482759" width="25.5172413793103" height="25.5172413793103" fill="#000000" />
<rect x="51.0344827586207" y="663.448275862069" width="25.5172413793103" height="25.5172413793103" fill="#000000" />
<rect x="51.0344827586207" y="714.48275862069" width="25.5172413793103" height="25.5172413793103" fill="#000000" />
<rect x="76.551724137931" y="0" width="25.5172413793103" height="25.5172413793103" fill="#000000" />
<rect x="76.551724137931" y="51.0344827586207" width="25.5172413793103" height="25.5172413793103" fill="#000000" />
<rect x="76.551724137931" y="76.551724137931" width="25.5172413793103" height="25.5172413793103" fill="#000000" />
<rect x="76.551724137931" y="102.068965517241" width="25.5172413793103" height="25.5172413793103" fill="#000000" />
<rect x="76.551724137931" y="153.103448275862" width="25.5172413793103" height="25.5172413793103" fill="#000000" />
<rect x="76.551724137931" y="204.137931034483" width="25.5172413793103" height="25.5172413793103" fill="#000000" />
<rect x="76.551724137931" y="255.172413793103" width="25.5172413793103" height="25.5172413793103" fill="#000000" />
<rect x="76.551724137931" y="280.689655172414" width="25.5172413793103" height="25.5172413793103" fill="#000000" />
<rect x="76.551724137931" y="331.724137931034" width="25.5172413793103" height="25.5172413793103" fill="#000000" />
<rect x="76.551724137931" y="433.793103448276" width="25.5172413793103" height="25.5172413793103" fill="#000000" />
<rect x="76.551724137931" y="484.827586206897" width="25.5172413793103" height="25.5172413793103" fill="#000000" />
<rect x="76.551724137931" y="510.344827586207" width="25.5172413793103" height="25.5172413793103" fill="#000000" />
<rect x="76.551724137931" y="561.379310344828" width="25.5172413793103" height="25.5172413793103" fill="#000000" />
<rect x="76.551724137931" y="612.413793103448" width="25.5172413793103" height="25.5172413793103" fill="#000000" />
<rect x="76.551724137931" y="637.931034482759" width="25.5172413793103" height="25.5172413793103" fill="#000000" />
<rect x="76.551724137931" y="663.448275862069" width="25.5172413793103" height="25.5172413793103" fill="#000000" />
<rect x="76.551724137931" y="714.48275862069" width="25.5172413793103" height="25.5172413793103" fill="#000000" />
<rect x="102.068965517241" y="0" width="25.5172413793103" height="25.5172413793103" fill="#000000" />
<rect x="102.068965517241" y="51.0344827586207" width="25.5172413793103" height="25.5172413793103" fill="#000000" />
<rect x="102.068965517241" y="76.551724137931" width="25.5172413793103" height="25.5172413793103" fill="#000000" />
<rect x="102.068965517241" y="102.068965517241" width="25.5172413793103" height="25.5172413793103" fill="#000000" />
<rect x="102.068965517241" y="153.103448275862" width="25.5172413793103" height="25.5172413793103" fill="#000000" />
<rect x="102.068965517241" y="204.137931034483" width="25.5172413793103" height="25.5172413793103" fill="#000000" />
<rect x="102.068965517241" y="357.241379310345" width="25.5172413793103" height="25.5172413793103" fill="#000000" />
<rect x="102.068965517241" y="382.758620689655" width="25.5172413793103" height="25.5172413793103" fill="#000000" />
<rect x="102.068965517241" y="408.275862068966" width="25.5172413793103" height="25.5172413793103" fill="#000000" />
<rect x="102.068965517241" y="510.344827586207" width="25.5172413793103" height="25.5172413793103" fill="#000000" />
<rect x="102.068965517241" y="561.379310344828" width="25.5172413793103" height="25.5172413793103" fill="#000000" />
<rect x="102.068965517241" y="612.413793103448" width="25.5172413793103" height="25.5172413793103" fill="#000000" />
<rect x="102.068965517241" y="637.931034482759" width="25.5172413793103" height="25.5172413793103" fill="#000000" />
<rect x="102.068965517241" y="663.448275862069" width="25.5172413793103" height="25.5172413793103" fill="#000000" />
<rect x="102.068965517241" y="714.48275862069" width="25.5172413793103" height="25.5172413793103" fill="#000000" />
<rect x="127.586206896552" y="0" width="25.5172413793103" height="25.5172413793103" fill="#000000" />
<rect x="127.586206896552" y="153.103448275862" width="25.5172413793103" height="25.5172413793103" fill="#000000" />
<rect x="127.586206896552" y="229.655172413793" width="25.5172413793103" height="25.5172413793103" fill="#000000" />
<rect x="127.586206896552" y="255.172413793103" width="25.5172413793103" height="25.5172413793103" fill="#000000" />
<rect x="127.586206896552" y="306.206896551724" width="25.5172413793103" height="25.5172413793103" fill="#000000" />
<rect x="127.586206896552" y="331.724137931034" width="25.5172413793103" height="25.5172413793103" fill="#000000" />
<rect x="127.586206896552" y="408.275862068966" width="25.5172413793103" height="25.5172413793103" fill="#000000" />
<rect x="127.586206896552" y="433.793103448276" width="25.5172413793103" height="25.5172413793103" fill="#000000" />
<rect x="127.586206896552" y="484.827586206897" width="25.5172413793103" height="25.5172413793103" fill="#000000" />
<rect x="127.586206896552" y="510.344827586207" width="25.5172413793103" height="25.5172413793103" fill="#000000" />
<rect x="127.586206896552" y="561.379310344828" width="25.5172413793103" height="25.5172413793103" fill="#000000" />
<rect x="127.586206896552" y="714.48275862069" width="25.5172413793103" height="25.5172413793103" fill="#000000" />
<rect x="153.103448275862" y="0" width="25.5172413793103" height="25.5172413793103" fill="#000000" />
<rect x="153.103448275862" y="25.5172413793103" width="25.5172413793103" height="25.5172413793103" fill="#000000" />
<rect x="153.103448275862" y="51.0344827586207" width="25.5172413793103" height="25.5172413793103" fill="#000000" />
<rect x="153.103448275862" y="76.551724137931" width="25.5172413793103" height="25.5172413793103" fill="#000000" />
<rect x="153.103448275862" y="102.068965517241" width="25.5172413793103" height="25.5172413793103" fill="#000000" />
<rect x="153.103448275862" y="127.586206896552" width="25.5172413793103" height="25.5172413793103" fill="#000000" />
<rect x="153.103448275862" y="153.103448275862" width="25.5172413793103" height="25.5172413793103" fill="#000000" />
<rect x="153.103448275862" y="204.137931034483" width="25.5172413793103" height="25.5172413793103" fill="#000000" />
<rect x="153.103448275862" y="255.172413793103" width="25.5172413793103" height="25.5172413793103" fill="#000000" />
<rect x="153.103448275862" y="306.206896551724" width="25.5172413793103" height="25.5172413793103" fill="#000000" />
<rect x="153.103448275862" y="357.241379310345" width="25.5172413793103" height="25.5172413793103" fill="#000000" />
<rect x="153.103448275862" y="408.275862068966" width="25.5172413793103" height="25.5172413793103" fill="#000000" />
<rect x="153.103448275862" y="459.310344827586" width="25.5172413793103" height="25.5172413793103" fill="#000000" />
<rect x="153.103448275862" y="510.344827586207" width="25.5172413793103" height="25.5172413793103" fill="#000000" />
<rect x="153.103448275862" y="561.379310344828" width="25.5172413793103" height="25.5172413793103" fill="#000000" />
<rect x="153.103448275862" y="586.896551724138" width="25.5172413793103" height="25.5172413793103" fill="#000000" />
<rect x="153.103448275862" y="612.413793103448" width="25.5172413793103" height="25.5172413793103" fill="#000000" />
<rect x="153.103448275862" y="637.931034482759" width="25.5172413793103" height="25.5172413793103" fill="#000000" />
<rect x="153.103448275862" y="663.448275862069" width="25.5172413793103" height="25.5172413793103" fill="#000000" />
<rect x="153.103448275862" y="688.965517241379" width="25.5172413793103" height="25.5172413793103" fill="#000000" />
<rect x="153.103448275862" y="714.48275862069" width="25.5172413793103" height="25.5172413793103" fill="#000000" />
<rect x="178.620689655172" y="204.137931034483" width="25.5172413793103" height="25.5172413793103" fill="#000000" />
<rect x="178.620689655172" y="229.655172413793" width="25.5172413793103" height="25.5172413793103" fill="#000000" />
<rect x="178.620689655172" y="357.241379310345" width="25.5172413793103" height="25.5172413793103" fill="#000000" />
<rect x="178.620689655172" y="433.793103448276" width="25.5172413793103" height="25.5172413793103" fill="#000000" />
<rect x="204.137931034483" y="25.5172413793103" width="25.5172413793103" height="25.5172413793103" fill="#000000" />
<rect x="204.137931034483" y="76.551724137931" width="25.5172413793103" height="25.5172413793103" fill="#000000" />
<rect x="204.137931034483" y="127.586206896552" width="25.5172413793103" height="25.5172413793103" fill="#000000" />
<rect x="204.137931034483" y="153.103448275862" width="25.5172413793103" height="25.5172413793103" fill="#000000" />
<rect x="204.137931034483" y="204.137931034483" width="25.5172413793103" height="25.5172413793103" fill="#000000" />
<rect x="204.137931034483" y="229.655172413793" width="25.5172413793103" height="25.5172413793103" fill="#000000" />
<rect x="204.137931034483" y="357.241379310345" width="25.5172413793103" height="25.5172413793103" fill="#000000" />
<rect x="204.137931034483" y="382.758620689655" width="25.5172413793103" height="25.5172413793103" fill="#000000" />
<rect x="204.137931034483" y="484.827586206897" width="25.5172413793103" height="25.5172413793103" fill="#000000" />
<rect x="204.137931034483" y="510.344827586207" width="25.5172413793103" height="25.5172413793103" fill="#000000" />
<rect x="204.137931034483" y="535.862068965517" width="25.5172413793103" height="25.5172413793103" fill="#000000" />
<rect x="204.137931034483" y="561.379310344828" width="25.5172413793103" height="25.5172413793103" fill="#000000" />
<rect x="204.137931034483" y="612.413793103448" width="25.5172413793103" height="25.5172413793103" fill="#000000" />
<rect x="204.137931034483" y="637.931034482759" width="25.5172413793103" height="25.5172413793103" fill="#000000" />
<rect x="204.137931034483" y="663.448275862069" width="25.5172413793103" height="25.5172413793103" fill="#000000" />
<rect x="204.137931034483" y="688.965517241379" width="25.5172413793103" height="25.5172413793103" fill="#000000" />
<rect x="204.137931034483" y="714.48275862069" width="25.5172413793103" height="25.5172413793103" fill="#000000" />
<rect x="229.655172413793" y="76.551724137931" width="25.5172413793103" height="25.5172413793103" fill="#000000" />
<rect x="229.655172413793" y="102.068965517241" width="25.5172413793103" height="25.5172413793103" fill="#000000" />
<rect x="229.655172413793" y="127.586206896552" width="25.5172413793103" height="25.5172413793103" fill="#000000" />
<rect x="229.655172413793" y="178.620689655172" width="25.5172413793103" height="25.5172413793103" fill="#000000" />
<rect x="229.655172413793" y="204.137931034483" width="25.5172413793103" height="25.5172413793103" fill="#000000" />
<rect x="229.655172413793" y="306.206896551724" width="25.5172413793103" height="25.5172413793103" fill="#000000" />
<rect x="229.655172413793" y="331.724137931034" width="25.5172413793103" height="25.5172413793103" fill="#000000" />
<rect x="229.655172413793" y="357.241379310345" width="25.5172413793103" height="25.5172413793103" fill="#000000" />
<rect x="229.655172413793" y="382.758620689655" width="25.5172413793103" height="25.5172413793103" fill="#000000" />
<rect x="229.655172413793" y="433.793103448276" width="25.5172413793103" height="25.5172413793103" fill="#000000" />
<rect x="229.655172413793" y="484.827586206897" width="25.5172413793103" height="25.5172413793103" fill="#000000" />
<rect x="229.655172413793" y="510.344827586207" width="25.5172413793103" height="25.5172413793103" fill="#000000" />
<rect x="229.655172413793" y="535.862068965517" width="25.5172413793103" height="25.5172413793103" fill="#000000" />
<rect x="229.655172413793" y="561.379310344828" width="25.5172413793103" height="25.5172413793103" fill="#000000" />
<rect x="229.655172413793" y="637.931034482759" width="25.5172413793103" height="25.5172413793103" fill="#000000" />
<rect x="229.655172413793" y="688.965517241379" width="25.5172413793103" height="25.5172413793103" fill="#000000" />
<rect x="255.172413793103" y="0" width="25.5172413793103" height="25.5172413793103" fill="#000000" />
<rect x="255.172413793103" y="25.5172413793103" width="25.5172413793103" height="25.5172413793103" fill="#000000" />
<rect x="255.172413793103" y="76.551724137931" width="25.5172413793103" height="25.5172413793103" fill="#000000" />
<rect x="255.172413793103" y="153.103448275862" width="25.5172413793103" height="25.5172413793103" fill="#000000" />
<rect x="255.172413793103" y="178.620689655172" width="25.5172413793103" height="25.5172413793103" fill="#000000" />
<rect x="255.172413793103" y="229.655172413793" width="25.5172413793103" height="25.5172413793103" fill="#000000" />
<rect x="255.172413793103" y="255.172413793103" width="25.5172413793103" height="25.5172413793103" fill="#000000" />
<rect x="255.172413793103" y="306.206896551724" width="25.5172413793103" height="25.5172413793103" fill="#000000" />
<rect x="255.172413793103" y="382.758620689655" width="25.5172413793103" height="25.5172413793103" fill="#000000" />
<rect x="255.172413793103" y="408.275862068966" width="25.5172413793103" height="25.5172413793103" fill="#000000" />
<rect x="255.172413793103" y="459.310344827586" width="25.5172413793103" height="25.5172413793103" fill="#000000" />
<rect x="255.172413793103" y="510.344827586207" width="25.5172413793103" height="25.5172413793103" fill="#000000" />
<rect x="255.172413793103" y="586.896551724138" width="25.5172413793103" height="25.5172413793103" fill="#000000" />
<rect x="255.172413793103" y="612.413793103448" width="25.5172413793103" height="25.5172413793103" fill="#000000" />
<rect x="280.689655172414" y="127.586206896552" width="25.5172413793103" height="25.5172413793103" fill="#000000" />
<rect x="280.689655172414" y="178.620689655172" width="25.5172413793103" height="25.5172413793103" fill="#000000" />
<rect x="280.689655172414" y="204.137931034483" width="25.5172413793103" height="25.5172413793103" fill="#000000" />
<rect x="280.689655172414" y="357.241379310345" width="25.5172413793103" height="25.5172413793103" fill="#000000" />
<rect x="280.689655172414" y="382.758620689655" width="25.5172413793103" height="25.5172413793103" fill="#000000" />
<rect x="280.689655172414" y="408.275862068966" width="25.5172413793103" height="25.5172413793103" fill="#000000" />
<rect x="280.689655172414" y="561.379310344828" width="25.5172413793103" height="25.5172413793103" fill="#000000" />
<rect x="280.689655172414" y="586.896551724138" width="25.5172413793103" height="25.5172413793103" fill="#000000" />
<rect x="280.689655172414" y="612.413793103448" width="25.5172413793103" height="25.5172413793103" fill="#000000" />
<rect x="306.206896551724" y="0" width="25.5172413793103" height="25.5172413793103" fill="#000000" />
<rect x="306.206896551724" y="51.0344827586207" width="25.5172413793103" height="25.5172413793103" fill="#000000" />
<rect x="306.206896551724" y="76.551724137931" width="25.5172413793103" height="25.5172413793103" fill="#000000" />
<rect x="306.206896551724" y="127.586206896552" width="25.5172413793103" height="25.5172413793103" fill="#000000" />
<rect x="306.206896551724" y="153.103448275862" width="25.5172413793103" height="25.5172413793103" fill="#000000" />
<rect x="306.206896551724" y="229.655172413793" width="25.5172413793103" height="25.5172413793103" fill="#000000" />
<rect x="306.206896551724" y="280.689655172414" width="25.5172413793103" height="25.5172413793103" fill="#000000" />
<rect x="306.206896551724" y="306.206896551724" width="25.5172413793103" height="25.5172413793103" fill="#000000" />
<rect x="306.206896551724" y="357.241379310345" width="25.5172413793103" height="25.5172413793103" fill="#000000" />
<rect x="306.206896551724" y="433.793103448276" width="25.5172413793103" height="25.5172413793103" fill="#000000" />
<rect x="306.206896551724" y="484.827586206897" width="25.5172413793103" height="25.5172413793103" fill="#000000" />
<rect x="306.206896551724" y="510.344827586207" width="25.5172413793103" height="25.5172413793103" fill="#000000" />
<rect x="306.206896551724" y="561.379310344828" width="25.5172413793103" height="25.5172413793103" fill="#000000" />
<rect x="306.206896551724" y="637.931034482759" width="25.5172413793103" height="25.5172413793103" fill="#000000" />
<rect x="306.206896551724" y="688.965517241379" width="25.5172413793103" height="25.5172413793103" fill="#000000" />
<rect x="306.206896551724" y="714.48275862069" width="25.5172413793103" height="25.5172413793103" fill="#000000" />
<rect x="331.724137931034" y="0" width="25.5172413793103" height="25.5172413793103" fill="#000000" />
<rect x="331.724137931034" y="25.5172413793103" width="25.5172413793103" height="25.5172413793103" fill="#000000" />
<rect x="331.724137931034" y="51.0344827586207" width="25.5172413793103" height="25.5172413793103" fill="#000000" />
<rect x="331.724137931034" y="229.655172413793" width="25.5172413793103" height="25.5172413793103" fill="#000000" />
<rect x="331.724137931034" y="255.172413793103" width="25.5172413793103" height="25.5172413793103" fill="#000000" />
<rect x="331.724137931034" y="280.689655172414" width="25.5172413793103" height="25.5172413793103" fill="#000000" />
<rect x="331.724137931034" y="433.793103448276" width="25.5172413793103" height="25.5172413793103" fill="#000000" />
<rect x="331.724137931034" y="459.310344827586" width="25.5172413793103" height="25.5172413793103" fill="#000000" />
<rect x="331.724137931034" y="484.827586206897" width="25.5172413793103" height="25.5172413793103" fill="#000000" />
<rect x="331.724137931034" y="637.931034482759" width="25.5172413793103" height="25.5172413793103" fill="#000000" />
<rect x="331.724137931034" y="663.448275862069" width="25.5172413793103" height="25.5172413793103" fill="#000000" />
<rect x="331.724137931034" y="688.965517241379" width="25.5172413793103" height="25.5172413793103" fill="#000000" />
<rect x="357.241379310345" y="0" width="25.5172413793103" height="25.5172413793103" fill="#000000" />
<rect x="357.241379310345" y="25.5172413793103" width="25.5172413793103" height="25.5172413793103" fill="#000000" />
<rect x="357.241379310345" y="76.551724137931" width="25.5172413793103" height="25.5172413793103" fill="#000000" />
<rect x="357.241379310345" y="153.103448275862" width="25.5172413793103" height="25.5172413793103" fill="#000000" />
<rect x="357.241379310345" y="178.620689655172" width="25.5172413793103" height="25.5172413793103" fill="#000000" />
<rect x="357.241379310345" y="229.655172413793" width="25.5172413793103" height="25.5172413793103" fill="#000000" />
<rect x="357.241379310345" y="255.172413793103" width="25.5172413793103" height="25.5172413793103" fill="#000000" />
<rect x="357.241379310345" y="306.206896551724" width="25.5172413793103" height="25.5172413793103" fill="#000000" />
<rect x="357.241379310345" y="382.758620689655" width="25.5172413793103" height="25.5172413793103" fill="#000000" />
<rect x="357.241379310345" y="433.793103448276" width="25.5172413793103" height="25.5172413793103" fill="#000000" />
<rect x="357.241379310345" y="459.310344827586" width="25.5172413793103" height="25.5172413793103" fill="#000000" />
<rect x="357.241379310345" y="510.344827586207" width="25.5172413793103" height="25.5172413793103" fill="#000000" />
<rect x="357.241379310345" y="586.896551724138" width="25.5172413793103" height="25.5172413793103" fill="#000000" />
<rect x="357.241379310345" y="637.931034482759" width="25.5172413793103" height="25.5172413793103" fill="#000000" />
<rect x="357.241379310345" y="663.448275862069" width="25.5172413793103" height="25.5172413793103" fill="#000000" />
<rect x="357.241379310345" y="714.48275862069" width="25.5172413793103" height="25.5172413793103" fill="#000000" />
<rect x="382.758620689655" y="0" width="25.5172413793103" height="25.5172413793103" fill="#000000" />
<rect x="382.758620689655" y="25.5172413793103" width="25.5172413793103" height="25.5172413793103" fill="#000000" />
<rect x="382.758620689655" y="51.0344827586207" width="25.5172413793103" height="25.5172413793103" fill="#000000" />
<rect x="382.758620689655" y="76.551724137931" width="25.5172413793103" height="25.5172413793103" fill="#000000" />
<rect x="382.758620689655" y="102.068965517241" width="25.5172413793103" height="25.5172413793103" fill="#000000" />
<rect x="382.758620689655" y="229.655172413793" width="25.5172413793103" height="25.5172413793103" fill="#000000" />
<rect x="382.758620689655" y="255.172413793103" width="25.5172413793103" height="25.5172413793103" fill="#000000" />
<rect x="382.758620689655" y="280.689655172414" width="25.5172413793103" height="25.5172413793103" fill="#000000" />
<rect x="382.758620689655" y="306.206896551724" width="25.5172413793103" height="25.5172413793103" fill="#000000" />
<rect x="382.758620689655" y="357.241379310345" width="25.5172413793103" height="25.5172413793103" fill="#000000" />
<rect x="382.758620689655" y="382.758620689655" width="25.5172413793103" height="25.5172413793103" fill="#000000" />
<rect x="382.758620689655" y="408.275862068966" width="25.5172413793103" height="25.5172413793103" fill="#000000" />
<rect x="382.758620689655" y="459.310344827586" width="25.5172413793103" height="25.5172413793103" fill="#000000" />
<rect x="382.758620689655" y="561.379310344828" width="25.5172413793103" height="25.5172413793103" fill="#000000" />
<rect x="382.758620689655" y="612.413793103448" width="25.5172413793103" height="25.5172413793103" fill="#000000" />
<rect x="382.758620689655" y="663.448275862069" width="25.5172413793103" height="25.5172413793103" fill="#000000" />
<rect x="382.758620689655" y="714.48275862069" width="25.5172413793103" height="25.5172413793103" fill="#000000" />
<rect x="408.275862068966" y="25.5172413793103" width="25.5172413793103" height="25.5172413793103" fill="#000000" />
<rect x="408.275862068966" y="102.068965517241" width="25.5172413793103" height="25.5172413793103" fill="#000000" />
<rect x="408.275862068966" y="153.103448275862" width="25.5172413793103" height="25.5172413793103" fill="#000000" />
<rect x="408.275862068966" y="178.620689655172" width="25.5172413793103" height="25.5172413793103" fill="#000000" />
<rect x="408.275862068966" y="255.172413793103" width="25.5172413793103" height="25.5172413793103" fill="#000000" />
<rect x="408.275862068966" y="280.689655172414" width="25.5172413793103" height="25.5172413793103" fill="#000000" />
<rect x="408.275862068966" y="331.724137931034" width="25.5172413793103" height="25.5172413793103" fill="#000000" />
<rect x="408.275862068966" y="382.758620689655" width="25.5172413793103" height="25.5172413793103" fill="#000000" />
<rect x="408.275862068966" y="433.793103448276" width="25.5172413793103" height="25.5172413793103" fill="#000000" />
<rect x="408.275862068966" y="459.310344827586" width="25.5172413793103" height="25.5172413793103" fill="#000000" />
<rect x="408.275862068966" y="484.827586206897" width="25.5172413793103" height="25.5172413793103" fill="#000000" />
<rect x="408.275862068966" y="535.862068965517" width="25.5172413793103" height="25.5172413793103" fill="#000000" />
<rect x="408.275862068966" y="561.379310344828" width="25.5172413793103" height="25.5172413793103" fill="#000000" />
<rect x="408.275862068966" y="637.931034482759" width="25.5172413793103" height="25.5172413793103" fill="#000000" />
<rect x="408.275862068966" y="714.48275862069" width="25.5172413793103" height="25.5172413793103" fill="#000000" />
<rect x="433.793103448276" y="0" width="25.5172413793103" height="25.5172413793103" fill="#000000" />
<rect x="433.793103448276" y="76.551724137931" width="25.5172413793103" height="25.5172413793103" fill="#000000" />
<rect x="433.793103448276" y="102.068965517241" width="25.5172413793103" height="25.5172413793103" fill="#000000" />
<rect x="433.793103448276" y="127.586206896552" width="25.5172413793103" height="25.5172413793103" fill="#000000" />
<rect x="433.793103448276" y="204.137931034483" width="25.5172413793103" height="25.5172413793103" fill="#000000" />
<rect x="433.793103448276" y="255.172413793103" width="25.5172413793103" height="25.5172413793103" fill="#000000" />
<rect x="433.793103448276" y="306.206896551724" width="25.5172413793103" height="25.5172413793103" fill="#000000" />
<rect x="433.793103448276" y="331.724137931034" width="25.5172413793103" height="25.5172413793103" fill="#000000" />
<rect x="433.793103448276" y="408.275862068966" width="25.5172413793103" height="25.5172413793103" fill="#000000" />
<rect x="433.793103448276" y="433.793103448276" width="25.5172413793103" height="25.5172413793103" fill="#000000" />
<rect x="433.793103448276" y="459.310344827586" width="25.5172413793103" height="25.5172413793103" fill="#000000" />
<rect x="433.793103448276" y="510.344827586207" width="25.5172413793103" height="25.5172413793103" fill="#000000" />
<rect x="433.793103448276" y="535.862068965517" width="25.5172413793103" height="25.5172413793103" fill="#000000" />
<rect x="433.793103448276" y="561.379310344828" width="25.5172413793103" height="25.5172413793103" fill="#000000" />
<rect x="433.793103448276" y="612.413793103448" width="25.5172413793103" height="25.5172413793103" fill="#000000" />
<rect x="433.793103448276" y="714.48275862069" width="25.5172413793103" height="25.5172413793103" fill="#000000" />
<rect x="459.310344827586" y="0" width="25.5172413793103" height="25.5172413793103" fill="#000000" />
<rect x="459.310344827586" y="51.0344827586207" width="25.5172413793103" height="25.5172413793103" fill="#000000" />
<rect x="459.310344827586" y="102.068965517241" width="25.5172413793103" height="25.5172413793103" fill="#000000" />
<rect x="459.310344827586" y="153.103448275862" width="25.5172413793103" height="25.5172413793103" fill="#000000" />
<rect x="459.310344827586" y="229.655172413793" width="25.5172413793103" height="25.5172413793103" fill="#000000" />
<rect x="459.310344827586" y="331.724137931034" width="25.5172413793103" height="25.5172413793103" fill="#000000" />
<rect x="459.310344827586" y="357.241379310345" width="25.5172413793103" height="25.5172413793103" fill="#000000" />
<rect x="459.310344827586" y="433.793103448276" width="25.5172413793103" height="25.5172413793103" fill="#000000" />
<rect x="459.310344827586" y="484.827586206897" width="25.5172413793103" height="25.5172413793103" fill="#000000" />
<rect x="459.310344827586" y="510.344827586207" width="25.5172413793103" height="25.5172413793103" fill="#000000" />
<rect x="459.310344827586" y="535.862068965517" width="25.5172413793103" height="25.5172413793103" fill="#000000" />
<rect x="459.310344827586" y="663.448275862069" width="25.5172413793103" height="25.5172413793103" fill="#000000" />
<rect x="484.827586206897" y="0" width="25.5172413793103" height="25.5172413793103" fill="#000000" />
<rect x="484.827586206897" y="51.0344827586207" width="25.5172413793103" height="25.5172413793103" fill="#000000" />
<rect x="484.827586206897" y="76.551724137931" width="25.5172413793103" height="25.5172413793103" fill="#000000" />
<rect x="484.827586206897" y="102.068965517241" width="25.5172413793103" height="25.5172413793103" fill="#000000" />
<rect x="484.827586206897" y="178.620689655172" width="25.5172413793103" height="25.5172413793103" fill="#000000" />
<rect x="484.827586206897" y="229.655172413793" width="25.5172413793103" height="25.5172413793103" fill="#000000" />
<rect x="484.827586206897" y="280.689655172414" width="25.5172413793103" height="25.5172413793103" fill="#000000" />
<rect x="484.827586206897" y="331.724137931034" width="25.5172413793103" height="25.5172413793103" fill="#000000" />
<rect x="484.827586206897" y="382.758620689655" width="25.5172413793103" height="25.5172413793103" fill="#000000" />
<rect x="484.827586206897" y="408.275862068966" width="25.5172413793103" height="25.5172413793103" fill="#000000" />
<rect x="484.827586206897" y="433.793103448276" width="25.5172413793103" height="25.5172413793103" fill="#000000" />
<rect x="484.827586206897" y="510.344827586207" width="25.5172413793103" height="25.5172413793103" fill="#000000" />
<rect x="484.827586206897" y="561.379310344828" width="25.5172413793103" height="25.5172413793103" fill="#000000" />
<rect x="484.827586206897" y="586.896551724138" width="25.5172413793103" height="25.5172413793103" fill="#000000" />
<rect x="484.827586206897" y="637.931034482759" width="25.5172413793103" height="25.5172413793103" fill="#000000" />
<rect x="484.827586206897" y="663.448275862069" width="25.5172413793103" height="25.5172413793103" fill="#000000" />
<rect x="484.827586206897" y="714.48275862069" width="25.5172413793103" height="25.5172413793103" fill="#000000" />
<rect x="510.344827586207" y="0" width="25.5172413793103" height="25.5172413793103" fill="#000000" />
<rect x="510.344827586207" y="25.5172413793103" width="25.5172413793103" height="25.5172413793103" fill="#000000" />
<rect x="510.344827586207" y="51.0344827586207" width="25.5172413793103" height="25.5172413793103" fill="#000000" />
<rect x="510.344827586207" y="153.103448275862" width="25.5172413793103" height="25.5172413793103" fill="#000000" />
<rect x="510.344827586207" y="204.137931034483" width="25.5172413793103" height="25.5172413793103" fill="#000000" />
<rect x="510.344827586207" y="229.655172413793" width="25.5172413793103" height="25.5172413793103" fill="#000000" />
<rect x="510.344827586207" y="331.724137931034" width="25.5172413793103" height="25.5172413793103" fill="#000000" />
<rect x="510.344827586207" y="382.758620689655" width="25.5172413793103" height="25.5172413793103" fill="#000000" />
<rect x="510.344827586207" y="459.310344827586" width="25.5172413793103" height="25.5172413793103" fill="#000000" />
<rect x="510.344827586207" y="484.827586206897" width="25.5172413793103" height="25.5172413793103" fill="#000000" />
<rect x="510.344827586207" y="510.344827586207" width="25.5172413793103" height="25.5172413793103" fill="#000000" />
<rect x="510.344827586207" y="535.862068965517" width="25.5172413793103" height="25.5172413793103" fill="#000000" />
<rect x="510.344827586207" y="561.379310344828" width="25.5172413793103" height="25.5172413793103" fill="#000000" />
<rect x="510.344827586207" y="586.896551724138" width="25.5172413793103" height="25.5172413793103" fill="#000000" />
<rect x="510.344827586207" y="612.413793103448" width="25.5172413793103" height="25.5172413793103" fill="#000000" />
<rect x="510.344827586207" y="637.931034482759" width="25.5172413793103" height="25.5172413793103" fill="#000000" />
<rect x="510.344827586207" y="663.448275862069" width="25.5172413793103" height="25.5172413793103" fill="#000000" />
<rect x="510.344827586207" y="688.965517241379" width="25.5172413793103" height="25.5172413793103" fill="#000000" />
<rect x="535.862068965517" y="204.137931034483" width="25.5172413793103" height="25.5172413793103" fill="#000000" />
<rect x="535.862068965517" y="280.689655172414" width="25.5172413793103" height="25.5172413793103" fill="#000000" />
<rect x="535.862068965517" y="331.724137931034" width="25.5172413793103" height="25.5172413793103" fill="#000000" />
<rect x="535.862068965517" y="408.275862068966" width="25.5172413793103" height="25.5172413793103" fill="#000000" />
<rect x="535.862068965517" y="433.793103448276" width="25.5172413793103" height="25.5172413793103" fill="#000000" />
<rect x="535.862068965517" y="484.827586206897" width="25.5172413793103" height="25.5172413793103" fill="#000000" />
<rect x="535.862068965517" y="510.344827586207" width="25.5172413793103" height="25.5172413793103" fill="#000000" />
<rect x="535.862068965517" y="612.413793103448" width="25.5172413793103" height="25.5172413793103" fill="#000000" />
<rect x="535.862068965517" y="663.448275862069" width="25.5172413793103" height="25.5172413793103" fill="#000000" />
<rect x="535.862068965517" y="688.965517241379" width="25.5172413793103" height="25.5172413793103" fill="#000000" />
<rect x="561.379310344828" y="0" width="25.5172413793103" height="25.5172413793103" fill="#000000" />
<rect x="561.379310344828" y="25.5172413793103" width="25.5172413793103" height="25.5172413793103" fill="#000000" />
<rect x="561.379310344828" y="51.0344827586207" width="25.5172413793103" height="25.5172413793103" fill="#000000" />
<rect x="561.379310344828" y="76.551724137931" width="25.5172413793103" height="25.5172413793103" fill="#000000" />
<rect x="561.379310344828" y="102.068965517241" width="25.5172413793103" height="25.5172413793103" fill="#000000" />
<rect x="561.379310344828" y="127.586206896552" width="25.5172413793103" height="25.5172413793103" fill="#000000" />
<rect x="561.379310344828" y="153.103448275862" width="25.5172413793103" height="25.5172413793103" fill="#000000" />
<rect x="561.379310344828" y="229.655172413793" width="25.5172413793103" height="25.5172413793103" fill="#000000" />
<rect x="561.379310344828" y="331.724137931034" width="25.5172413793103" height="25.5172413793103" fill="#000000" />
<rect x="561.379310344828" y="433.793103448276" width="25.5172413793103" height="25.5172413793103" fill="#000000" />
<rect x="561.379310344828" y="459.310344827586" width="25.5172413793103" height="25.5172413793103" fill="#000000" />
<rect x="561.379310344828" y="484.827586206897" width="25.5172413793103" height="25.5172413793103" fill="#000000" />
<rect x="561.379310344828" y="510.344827586207" width="25.5172413793103" height="25.5172413793103" fill="#000000" />
<rect x="561.379310344828" y="561.379310344828" width="25.5172413793103" height="25.5172413793103" fill="#000000" />
<rect x="561.379310344828" y="612.413793103448" width="25.5172413793103" height="25.5172413793103" fill="#000000" />
<rect x="561.379310344828" y="663.448275862069" width="25.5172413793103" height="25.5172413793103" fill="#000000" />
<rect x="561.379310344828" y="714.48275862069" width="25.5172413793103" height="25.5172413793103" fill="#000000" />
<rect x="586.896551724138" y="0" width="25.5172413793103" height="25.5172413793103" fill="#000000" />
<rect x="586.896551724138" y="153.103448275862" width="25.5172413793103" height="25.5172413793103" fill="#000000" />
<rect x="586.896551724138" y="204.137931034483" width="25.5172413793103" height="25.5172413793103" fill="#000000" />
<rect x="586.896551724138" y="229.655172413793" width="25.5172413793103" height="25.5172413793103" fill="#000000" />
<rect x="586.896551724138" y="255.172413793103" width="25.5172413793103" height="25.5172413793103" fill="#000000" />
<rect x="586.896551724138" y="331.724137931034" width="25.5172413793103" height="25.5172413793103" fill="#000000" />
<rect x="586.896551724138" y="357.241379310345" width="25.5172413793103" height="25.5172413793103" fill="#000000" />
<rect x="586.896551724138" y="408.275862068966" width="25.5172413793103" height="25.5172413793103" fill="#000000" />
<rect x="586.896551724138" y="433.793103448276" width="25.5172413793103" height="25.5172413793103" fill="#000000" />
<rect x="586.896551724138" y="459.310344827586" width="25.5172413793103" height="25.5172413793103" fill="#000000" />
<rect x="586.896551724138" y="484.827586206897" width="25.5172413793103" height="25.5172413793103" fill="#000000" />
<rect x="586.896551724138" y="510.344827586207" width="25.5172413793103" height="25.5172413793103" fill="#000000" />
<rect x="586.896551724138" y="612.413793103448" width="25.5172413793103" height="25.5172413793103" fill="#000000" />
<rect x="586.896551724138" y="637.931034482759" width="25.5172413793103" height="25.5172413793103" fill="#000000" />
<rect x="586.896551724138" y="663.448275862069" width="25.5172413793103" height="25.5172413793103" fill="#000000" />
<rect x="586.896551724138" y="688.965517241379" width="25.5172413793103" height="25.5172413793103" fill="#000000" />
<rect x="586.896551724138" y="714.48275862069" width="25.5172413793103" height="25.5172413793103" fill="#000000" />
<rect x="612.413793103448" y="0" width="25.5172413793103" height="25.5172413793103" fill="#000000" />
<rect x="612.413793103448" y="51.0344827586207" width="25.5172413793103" height="25.5172413793103" fill="#000000" />
<rect x="612.413793103448" y="76.551724137931" width="25.5172413793103" height="25.5172413793103" fill="#000000" />
<rect x="612.413793103448" y="102.068965517241" width="25.5172413793103" height="25.5172413793103" fill="#000000" />
<rect x="612.413793103448" y="153.103448275862" width="25.5172413793103" height="25.5172413793103" fill="#000000" />
<rect x="612.413793103448" y="229.655172413793" width="25.5172413793103" height="25.5172413793103" fill="#000000" />
<rect x="612.413793103448" y="255.172413793103" width="25.5172413793103" height="25.5172413793103" fill="#000000" />
<rect x="612.413793103448" y="331.724137931034" width="25.5172413793103" height="25.5172413793103" fill="#000000" />
<rect x="612.413793103448" y="382.758620689655" width="25.5172413793103" height="25.5172413793103" fill="#000000" />
<rect x="612.413793103448" y="433.793103448276" width="25.5172413793103" height="25.5172413793103" fill="#000000" />
<rect x="612.413793103448" y="459.310344827586" width="25.5172413793103" height="25.5172413793103" fill="#000000" />
<rect x="612.413793103448" y="484.827586206897" width="25.5172413793103" height="25.5172413793103" fill="#000000" />
<rect x="612.413793103448" y="510.344827586207" width="25.5172413793103" height="25.5172413793103" fill="#000000" />
<rect x="612.413793103448" y="535.862068965517" width="25.5172413793103" height="25.5172413793103" fill="#000000" />
<rect x="612.413793103448" y="561.379310344828" width="25.5172413793103" height="25.5172413793103" fill="#000000" />
<rect x="612.413793103448" y="586.896551724138" width="25.5172413793103" height="25.5172413793103" fill="#000000" />
<rect x="612.413793103448" y="612.413793103448" width="25.5172413793103" height="25.5172413793103" fill="#000000" />
<rect x="612.413793103448" y="663.448275862069" width="25.5172413793103" height="25.5172413793103" fill="#000000" />
<rect x="612.413793103448" y="688.965517241379" width="25.5172413793103" height="25.5172413793103" fill="#000000" />
<rect x="612.413793103448" y="714.48275862069" width="25.5172413793103" height="25.5172413793103" fill="#000000" />
<rect x="637.931034482759" y="0" width="25.5172413793103" height="25.5172413793103" fill="#000000" />
<rect x="637.931034482759" y="51.0344827586207" width="25.5172413793103" height="25.5172413793103" fill="#000000" />
<rect x="637.931034482759" y="76.551724137931" width="25.5172413793103" height="25.5172413793103" fill="#000000" />
<rect x="637.931034482759" y="102.068965517241" width="25.5172413793103" height="25.5172413793103" fill="#000000" />
<rect x="637.931034482759" y="153.103448275862" width="25.5172413793103" height="25.5172413793103" fill="#000000" />
<rect x="637.931034482759" y="204.137931034483" width="25.5172413793103" height="25.5172413793103" fill="#000000" />
<rect x="637.931034482759" y="306.206896551724" width="25.5172413793103" height="25.5172413793103" fill="#000000" />
<rect x="637.931034482759" y="433.793103448276" width="25.5172413793103" height="25.5172413793103" fill="#000000" />
<rect x="637.931034482759" y="459.310344827586" width="25.5172413793103" height="25.5172413793103" fill="#000000" />
<rect x="637.931034482759" y="535.862068965517" width="25.5172413793103" height="25.5172413793103" fill="#000000" />
<rect x="637.931034482759" y="561.379310344828" width="25.5172413793103" height="25.5172413793103" fill="#000000" />
<rect x="637.931034482759" y="586.896551724138" width="25.5172413793103" height="25.5172413793103" fill="#000000" />
<rect x="637.931034482759" y="637.931034482759" width="25.5172413793103" height="25.5172413793103" fill="#000000" />
<rect x="637.931034482759" y="663.448275862069" width="25.5172413793103" height="25.5172413793103" fill="#000000" />
<rect x="637.931034482759" y="688.965517241379" width="25.5172413793103" height="25.5172413793103" fill="#000000" />
<rect x="663.448275862069" y="0" width="25.5172413793103" height="25.5172413793103" fill="#000000" />
<rect x="663.448275862069" y="51.0344827586207" width="25.5172413793103" height="25.5172413793103" fill="#000000" />
<rect x="663.448275862069" y="76.551724137931" width="25.5172413793103" height="25.5172413793103" fill="#000000" />
<rect x="663.448275862069" y="102.068965517241" width="25.5172413793103" height="25.5172413793103" fill="#000000" />
<rect x="663.448275862069" y="153.103448275862" width="25.5172413793103" height="25.5172413793103" fill="#000000" />
<rect x="663.448275862069" y="306.206896551724" width="25.5172413793103" height="25.5172413793103" fill="#000000" />
<rect x="663.448275862069" y="331.724137931034" width="25.5172413793103" height="25.5172413793103" fill="#000000" />
<rect x="663.448275862069" y="357.241379310345" width="25.5172413793103" height="25.5172413793103" fill="#000000" />
<rect x="663.448275862069" y="408.275862068966" width="25.5172413793103" height="25.5172413793103" fill="#000000" />
<rect x="663.448275862069" y="433.793103448276" width="25.5172413793103" height="25.5172413793103" fill="#000000" />
<rect x="663.448275862069" y="459.310344827586" width="25.5172413793103" height="25.5172413793103" fill="#000000" />
<rect x="663.448275862069" y="510.344827586207" width="25.5172413793103" height="25.5172413793103" fill="#000000" />
<rect x="663.448275862069" y="535.862068965517" width="25.5172413793103" height="25.5172413793103" fill="#000000" />
<rect x="663.448275862069" y="561.379310344828" width="25.5172413793103" height="25.5172413793103" fill="#000000" />
<rect x="663.448275862069" y="612.413793103448" width="25.5172413793103" height="25.5172413793103" fill="#000000" />
<rect x="663.448275862069" y="637.931034482759" width="25.5172413793103" height="25.5172413793103" fill="#000000" />
<rect x="663.448275862069" y="714.48275862069" width="25.5172413793103" height="25.5172413793103" fill="#000000" />
<rect x="688.965517241379" y="0" width="25.5172413793103" height="25.5172413793103" fill="#000000" />
<rect x="688.965517241379" y="153.103448275862" width="25.5172413793103" height="25.5172413793103" fill="#000000" />
<rect x="688.965517241379" y="204.137931034483" width="25.5172413793103" height="25.5172413793103" fill="#000000" />
<rect x="688.965517241379" y="280.689655172414" width="25.5172413793103" height="25.5172413793103" fill="#000000" />
<rect x="688.965517241379" y="382.758620689655" width="25.5172413793103" height="25.5172413793103" fill="#000000" />
<rect x="688.965517241379" y="484.827586206897" width="25.5172413793103" height="25.5172413793103" fill="#000000" />
<rect x="688.965517241379" y="510.344827586207" width="25.5172413793103" height="25.5172413793103" fill="#000000" />
<rect x="688.965517241379" y="535.862068965517" width="25.5172413793103" height="25.5172413793103" fill="#000000" />
<rect x="688.965517241379" y="586.896551724138" width="25.5172413793103" height="25.5172413793103" fill="#000000" />
<rect x="688.965517241379" y="612.413793103448" width="25.5172413793103" height="25.5172413793103" fill="#000000" />
<rect x="688.965517241379" y="637.931034482759" width="25.5172413793103" height="25.5172413793103" fill="#000000" />
<rect x="688.965517241379" y="663.448275862069" width="25.5172413793103" height="25.5172413793103" fill="#000000" />
<rect x="688.965517241379" y="688.965517241379" width="25.5172413793103" height="25.5172413793103" fill="#000000" />
<rect x="714.48275862069" y="0" width="25.5172413793103" height="25.5172413793103" fill="#000000" />
<rect x="714.48275862069" y="25.5172413793103" width="25.5172413793103" height="25.5172413793103" fill="#000000" />
<rect x="714.48275862069" y="51.0344827586207" width="25.5172413793103" height="25.5172413793103" fill="#000000" />
<rect x="714.48275862069" y="76.551724137931" width="25.5172413793103" height="25.5172413793103" fill="#000000" />
<rect x="714.48275862069" y="102.068965517241" width="25.5172413793103" height="25.5172413793103" fill="#000000" />
<rect x="714.48275862069" y="127.586206896552" width="25.5172413793103" height="25.5172413793103" fill="#000000" />
<rect x="714.48275862069" y="153.103448275862" width="25.5172413793103" height="25.5172413793103" fill="#000000" />
<rect x="714.48275862069" y="229.655172413793" width="25.5172413793103" height="25.5172413793103" fill="#000000" />
<rect x="714.48275862069" y="331.724137931034" width="25.5172413793103" height="25.5172413793103" fill="#000000" />
<rect x="714.48275862069" y="433.793103448276" width="25.5172413793103" height="25.5172413793103" fill="#000000" />
<rect x="714.48275862069" y="510.344827586207" width="25.5172413793103" height="25.5172413793103" fill="#000000" />
<rect x="714.48275862069" y="535.862068965517" width="25.5172413793103" height="25.5172413793103" fill="#000000" />
<rect x="714.48275862069" y="586.896551724138" width="25.5172413793103" height="25.5172413793103" fill="#000000" />
<rect x="714.48275862069" y="637.931034482759" width="25.5172413793103" height="25.5172413793103" fill="#000000" />
</svg>
